<?xml version="1.0" standalone="no"?>
<!DOCTYPE svg PUBLIC "-//W3C//DTD SVG 20010904//EN"
 "http://www.w3.org/TR/2001/REC-SVG-20010904/DTD/svg10.dtd">
<svg version="1.0" xmlns="http://www.w3.org/2000/svg"
 width="600.000000pt" height="600.000000pt" viewBox="0 0 600.000000 600.000000"
 preserveAspectRatio="xMidYMid meet">
<metadata>
Created by potrace 1.14, written by Peter Selinger 2001-2017
</metadata>
<g transform="translate(0.000000,600.000000) scale(0.100000,-0.100000)"
fill="#000000" stroke="none">
<path d="M2909 5560 c-228 -36 -423 -203 -496 -424 -21 -65 -26 -101 -27 -181
0 -55 6 -125 13 -155 17 -69 70 -180 116 -242 64 -87 188 -172 305 -209 55
-17 55 -17 53 -56 -9 -135 -45 -528 -49 -535 -3 -4 -81 -8 -174 -8 -123 0
-171 -3 -176 -12 -12 -18 -4 -230 8 -245 8 -10 54 -13 175 -13 l165 0 -6 -92
c-4 -51 -20 -374 -36 -718 -38 -794 -39 -808 -86 -952 -80 -243 -279 -380
-594 -408 -245 -21 -484 41 -687 177 -87 58 -240 199 -282 260 l-22 33 78 49
c43 27 88 57 101 66 24 17 29 57 10 73 -22 17 -560 242 -579 242 -10 0 -23 -9
-28 -19 -6 -10 -18 -157 -27 -326 -17 -299 -17 -308 1 -321 10 -8 24 -14 30
-14 6 0 51 25 100 56 49 31 91 51 93 45 11 -32 107 -179 160 -244 81 -99 166
-175 283 -253 223 -149 439 -217 879 -278 318 -44 489 -124 678 -316 119 -121
121 -121 234 -4 188 195 357 275 678 320 227 31 413 69 525 106 120 39 292
125 385 190 152 107 314 288 387 433 14 28 26 51 28 53 1 1 44 -23 94 -54 82
-50 95 -55 117 -46 21 10 24 18 24 64 0 128 -32 583 -42 595 -6 7 -19 13 -28
13 -19 0 -555 -226 -577 -243 -20 -15 -15 -55 10 -72 12 -9 57 -39 100 -66
l78 -49 -33 -46 c-49 -68 -177 -186 -273 -249 -203 -135 -440 -196 -685 -175
-401 35 -598 233 -640 642 -5 57 -23 389 -40 738 -16 349 -32 670 -35 713 l-6
77 164 0 c124 0 167 3 175 13 16 19 26 196 13 230 l-11 27 -170 0 c-128 0
-172 3 -175 13 -3 10 -36 379 -47 531 l-3 38 55 17 c202 63 354 219 415 426
28 92 26 260 -2 350 -61 192 -217 351 -402 409 -88 28 -211 39 -292 26z m147
-321 c150 -27 248 -143 249 -294 0 -120 -62 -219 -172 -275 -68 -35 -188 -36
-253 -2 -187 97 -233 327 -97 479 40 44 106 80 169 92 24 5 43 9 44 10 0 1 27
-4 60 -10z"/>
</g>
</svg>
